# xmcd CD database file
#
# Track frame offsets:
#	150
#	14848
#	24360
#	37067
#	54121
#	78684
#	100759
#	113871
#	133430
#	155520
#	177925
#	194211
#	212989
#	234855
#	250758
#
# Disc length: 3537 seconds
#
# Revision: 0
# Processed by: cddbd v1.5.2PL0 Copyright (c) Steve Scherf et al.
# Submitted via: CDex 1.70beta3
#
DISCID=d40dcf0f
DTITLE=KOBUDO -古武道- - 時ノ翼
DYEAR=2009
DGENRE=New Age
TTITLE0=材木座海岸
TTITLE1=三つの小品「昭和」　壱．家族の食卓（華々しき一族）
TTITLE2=三つの小品「昭和」　弐．晩秋（華々しき一族）
TTITLE3=三つの小品「昭和」　参．追憶のアリア（華々しき一族）
TTITLE4=百花繚乱（元禄花見踊）
TTITLE5=討匪行
TTITLE6=翼（ＮＥＷＳ２３　オープニング・テーマ）
TTITLE7=おくりびと（おくりびと）
TTITLE8=歌劇「マノン・レスコー」～Ｉｎｔｅｒｍｅｚｚｏ（第３幕への間奏曲）
TTITLE9=絆－そして東雲の空を共に翔けよう－（少年時代）
TTITLE10=花魁道中
TTITLE11=月想ひ
TTITLE12=ＴＡＮＧＯ－Ｊ
TTITLE13=明日は晴れるかな？（ＮＥＷＳ２３　エンディング・テーマ）
TTITLE14=材木座海岸（ｗｉｔｈ　Ｓｔｒｉｎｇｓ）
EXTD=YEAR: 2009
EXTT0=
EXTT1=
EXTT2=
EXTT3=
EXTT4=
EXTT5=
EXTT6=
EXTT7=
EXTT8=
EXTT9=
EXTT10=
EXTT11=
EXTT12=
EXTT13=
EXTT14=
PLAYORDER=
